PathFileType   4   (X/Y/Z)
DataRate	CameraRate	NumFrames	NumMarkers	Units	OrigDataRate	OrigDataStartFrame	OrigNumFrames
120.0	120.0	5	37	mm	120.0	181	206
Frame#	Time	midhip	hip_r	hip_l	knee_r	knee_l	ankle_r	ankle_l	midasis	asis_r	asis_l	psis_r	psis_l	epicondLat_r	epicondLat_l	epicondMed_r	epicondMed_l	malleolusLat_r	malleolusLat_l	malleolusMedv_r	malleolusMedv_l	neck	subclavicle_r	subclavicle_l	sternalnotch	xyphoidprocess	thighwand_r	thighwand_l	upperleg1_r	upperleg1_l	upperleg2_r	upperleg2_l	shankwand_r	shankwand_l	lowerleg1_r	lowerleg1_l	toe_r	toe_l
 	 	X1	Y1	Z1	X2	Y2	Z2	X3	Y3	Z3	X4	Y4	Z4	X5	Y5	Z5	X6	Y6	Z6	X7	Y7	Z7	X8	Y8	Z8	X9	Y9	Z9	X10	Y10	Z10	X11	Y11	Z11	X12	Y12	Z12	X13	Y13	Z13	X14	Y14	Z14	X15	Y15	Z15	X16	Y16	Z16	X17	Y17	Z17	X18	Y18	Z18	X19	Y19	Z19	X20	Y20	Z20	X21	Y21	Z21	X22	Y22	Z22	X23	Y23	Z23	X24	Y24	Z24	X25	Y25	Z25	X26	Y26	Z26	X27	Y27	Z27	X28	Y28	Z28	X29	Y29	Z29	X30	Y30	Z30	X31	Y31	Z31	X32	Y32	Z32	X33	Y33	Z33	X34	Y34	Z34	X35	Y35	Z35	X36	Y36	Z36	X37	Y37	Z37

	181	1.65833	2153.455	619.092	-202.708	2158.273	625.821	-145.528	2163.360	637.253	-262.305	2071.412	336.293	-130.915	2276.218	349.471	-286.841	1968.479	62.661	-114.922	2392.025	87.002	-321.060	2203.796	693.898	-195.939	2199.961	685.279	-107.902	2207.632	702.517	-283.975	2063.934	709.140	-160.082	2071.710	709.416	-244.776	2063.927	340.818	-85.754	2273.305	352.406	-334.662	2064.369	337.093	-173.183	2260.767	338.491	-245.056	1964.421	66.120	-81.849	2382.739	86.966	-352.206	1971.124	62.200	-142.072	2389.588	84.636	-287.392	2124.672	1027.897	-188.484	2220.170	960.254	-145.371	2219.742	961.753	-236.717	2205.040	973.554	-183.216	2250.602	839.241	-190.610	2210.255	385.357	-137.160	2301.013	452.783	-380.214	2156.551	460.547	-105.906	2271.448	493.779	-294.214	2113.666	382.498	-100.496	2295.627	413.427	-283.230	2016.167	134.803	-18.873	2426.521	225.379	-283.024	2022.175	198.973	-81.343	2347.222	251.131	-299.325	2052.661	39.957	-106.943	2479.784	70.143	-316.330
	182	1.66667	2159.533	618.119	-204.921	2164.112	624.921	-147.721	2169.606	636.226	-264.492	2075.140	336.017	-132.302	2284.224	349.127	-288.450	1968.969	63.565	-115.313	2399.678	86.516	-322.518	2209.679	693.034	-198.045	2205.535	684.507	-109.968	2213.823	701.561	-286.122	2069.666	708.015	-162.678	2077.756	708.214	-247.333	2067.596	340.749	-87.173	2281.934	352.206	-336.296	2068.380	336.601	-174.579	2268.352	337.919	-246.899	1964.897	67.213	-82.263	2390.859	86.697	-353.798	1971.599	62.937	-142.506	2397.024	83.904	-288.905	2130.217	1026.696	-191.578	2225.804	959.382	-148.103	2225.500	960.558	-239.491	2210.718	972.533	-186.064	2256.537	838.270	-192.890	2214.426	384.114	-138.432	2309.756	452.744	-381.110	2161.095	459.711	-107.548	2278.816	493.440	-295.199	2117.846	382.024	-101.965	2303.275	413.275	-284.269	2017.352	135.621	-19.503	2434.165	224.441	-283.130	2024.244	199.233	-82.310	2355.228	250.566	-300.377	2052.802	40.017	-107.076	2487.520	70.229	-317.293
	183	1.67500	2165.776	617.110	-207.186	2170.055	623.993	-149.971	2176.026	635.140	-266.733	2079.112	335.696	-133.708	2292.232	348.656	-290.032	1969.509	64.536	-115.687	2406.690	85.601	-324.057	2215.689	692.132	-200.198	2211.183	683.719	-112.072	2220.196	700.545	-288.325	2075.539	706.840	-165.398	2083.987	706.950	-250.004	2071.460	340.653	-88.621	2290.530	351.858	-337.895	2072.703	336.253	-176.169	2275.999	337.343	-248.680	1965.428	68.380	-82.659	2398.288	86.006	-355.449	1972.129	63.812	-142.834	2403.878	82.783	-290.530	2135.849	1025.489	-194.919	2231.474	958.509	-151.000	2231.373	959.361	-242.413	2216.441	971.494	-189.027	2262.540	837.299	-195.299	2218.817	382.843	-139.595	2318.476	452.542	-382.056	2165.965	458.985	-109.180	2286.304	493.031	-296.445	2122.189	381.573	-103.515	2311.013	412.975	-285.416	2018.652	136.490	-20.122	2441.540	222.964	-283.439	2026.477	199.743	-83.229	2363.023	249.738	-301.618	2052.965	40.091	-107.211	2494.534	69.604	-318.374
	184	1.68333	2172.211	616.056	-209.511	2176.126	623.028	-152.278	2182.639	633.984	-269.030	2083.337	335.319	-135.133	2300.245	348.042	-291.583	1970.101	65.574	-116.047	2413.071	84.245	-325.678	2221.852	691.181	-202.403	2216.933	682.906	-114.223	2226.772	699.455	-290.584	2081.570	705.612	-168.246	2090.425	705.615	-252.791	2075.527	340.522	-90.101	2299.073	351.336	-339.456	2077.325	335.922	-177.837	2283.793	336.832	-250.219	1966.017	69.624	-83.044	2405.038	84.878	-357.164	1972.878	64.764	-143.230	2409.906	81.219	-292.262	2141.531	1024.408	-198.521	2237.189	957.639	-154.021	2237.307	958.153	-245.418	2222.209	970.435	-192.122	2268.484	836.298	-197.788	2223.433	381.539	-140.637	2327.136	452.134	-383.081	2170.965	458.363	-110.772	2293.944	492.580	-297.878	2126.665	381.179	-105.070	2318.881	412.595	-286.583	2020.066	137.401	-20.734	2448.637	220.941	-283.942	2028.793	200.271	-84.165	2370.647	248.621	-302.880	2053.154	40.184	-107.348	2500.845	68.282	-319.578
	185	1.69167	2178.855	614.940	-211.905	2182.358	622.012	-154.640	2189.465	632.739	-271.378	2087.819	334.874	-136.578	2308.264	347.268	-293.097	1970.746	66.681	-116.402	2418.831	82.434	-327.380	2228.197	690.163	-204.665	2222.825	682.055	-116.431	2233.569	698.270	-292.900	2087.773	704.323	-171.219	2097.089	704.196	-255.697	2079.800	340.343	-91.614	2307.549	350.613	-340.975	2082.239	335.358	-179.410	2291.765	336.310	-251.519	1966.667	70.943	-83.426	2411.124	83.302	-358.941	1973.844	65.834	-143.729	2415.184	79.226	-294.081	2147.199	1023.190	-202.141	2242.939	956.787	-157.158	2243.228	956.875	-248.481	2228.024	969.347	-195.357	2274.549	835.304	-200.263	2228.277	380.190	-141.556	2335.711	451.476	-384.201	2176.018	457.629	-112.305	2301.722	492.040	-299.269	2131.362	380.735	-106.543	2326.855	412.159	-287.702	2021.597	138.345	-21.344	2455.446	218.370	-284.618	2031.224	200.796	-85.093	2378.033	247.110	-304.103	2053.374	40.299	-107.487	2506.473	66.300	-320.909
